<svg xmlns="http://www.w3.org/2000/svg" viewBox="0 0 17 17">
  <path fill="gray" stroke="#000" stroke-width=".5" d="M10 280c-3 0-4 3-5 5-1 4 0 8 2 10s4 2 6 1c3-2 4-6 4-10-1-3-4-5-7-6z" transform="matrix(1 0 0 1.00005 0 -280)"/>
  <path fill="#e6e6e6" d="M9 1C7 1 6 4 5 6c0 3 0 6 2 9 2 1 4 1 6-1 2-3 3-7 1-10-1-1-3-3-5-3z"/>
  <path fill="none" stroke="#f9f9f9" stroke-width=".4" d="M8 293c-1 1-1 4 1 3 2 0 2-3 4-3s1 2 2 3c1 2 1-1 2-1" transform="matrix(1 0 0 1.00005 0 -280)"/>
  <path fill="#b3b3b3" stroke="#000" stroke-width=".5" d="M5 280c-2 1-4 3-4 6-1 3-1 7 1 9s5 2 6 1c4-3 5-8 3-11-1-3-3-4-6-5z" transform="matrix(1 0 0 1.00005 0 -280)"/>
</svg>
