<svg xmlns="http://www.w3.org/2000/svg" viewBox="0 0 16.9 16.9">
  <g stroke="#000" stroke-width=".3">
    <path fill="#0f0" d="M9.9 291.7c-.5-.3-.5-1-.4-1.6.1-.4.1-1-.4-1.2-.6-.1-1.2.2-1.8.2-1.8.2-3.7 0-5.4-.4.1 1-.4 1.8 0 2.6.2.5.8.4 1.3.3.5-.2 1-.2 1.7-.2 1.6 0 3.3 0 5 .3z" transform="matrix(1.8239 0 0 2.05865 -2.9 -585.9)"/>
    <path fill="none" d="M5.7 289.5c-.7 0-.6 1.3.1 1.3M4.8 290h1M4.9 290.3h1" transform="matrix(1.8239 0 0 2.05865 -2.9 -585.9)"/>
    <g>
      <path fill="#0f0" d="M9.9 291.7c-.5-.3-.5-1-.4-1.6.1-.4.1-1-.4-1.2-.6-.1-1.2.2-1.8.2-1.8.2-3.7 0-5.4-.4.1 1-.4 1.8 0 2.6.2.5.8.4 1.3.3.5-.2 1-.2 1.7-.2 1.6 0 3.3 0 5 .3z" transform="scale(1.8239 2.05865) rotate(19.2 848.1 145.3)"/>
      <path fill="none" d="M5.7 289.5c-.7 0-.6 1.3.1 1.3M4.8 290h1M4.9 290.3h1" transform="scale(1.8239 2.05865) rotate(19.2 848.1 145.3)"/>
    </g>
    <g>
      <path fill="#0f0" d="M9.9 291.7c-.5-.3-.5-1-.4-1.6.1-.4.1-1-.4-1.2-.6-.1-1.2.2-1.8.2-1.8.2-3.7 0-5.4-.4.1 1-.4 1.8 0 2.6.2.5.8.4 1.3.3.5-.2 1-.2 1.7-.2 1.6 0 3.3 0 5 .3z" transform="scale(1.8239 2.05865) rotate(47.3 332.5 147.2)"/>
      <path fill="none" d="M5.7 289.5c-.7 0-.6 1.3.1 1.3M4.8 290h1M4.9 290.3h1" transform="scale(1.8239 2.05865) rotate(47.3 332.5 147.2)"/>
    </g>
  </g>
</svg>
