<svg xmlns="http://www.w3.org/2000/svg" viewBox="0 0 17 17">
  <defs/>
  <path fill="#803300" stroke="#000" stroke-width=".4" d="M11 6V1l4-1 2 3v8l-1 5H0m0 0C2 10 6 6 11 6"/>
  <path fill="none" stroke="#000" stroke-width=".3" d="M8 6c3 1 3 3 3 3M6 7c3 1 3 3 3 3M4 9l2 2M11 2h6"/>
  <path d="M13 2a9 9 0 01-2 0l1-1a3 3 0 012 0h2v1h-3z"/>
  <path d="M15 17h-1l-4-1a21 21 0 00-6 0H0l2-4 4-5 3-1 1-1 1-3a3 3 0 014-2l1 1 1 2v12l-1 2h-1zm1-1v-1-4-4a31 31 0 000-5l-2 1a7 7 0 01-3-1 6 6 0 000 4h-1a7 7 0 00-1 0l2 2v1a4 4 0 00-1-2L8 6 6 7l1 1 1 1 1 1-1-1-1-1-1-1-2 2 2 2-2-1a20 20 0 00-4 6h1a17 17 0 004 0h10v1l1-1zM14 2a17 17 0 002 0V1h-1 1v1a10 10 0 01-5 0l1-1 1-1a4 4 0 012 1l-1-1h-1a3 3 0 00-2 2 8 8 0 003 0z"/>
  <path d="M15 17h-1l-4-1a20 20 0 00-6 0H0l3-6c2-2 4-4 6-4l1-1V4l1-2V1l4-1 1 1 1 2v12l-1 2h-1zm1 0v-2-4-4a33 33 0 000-5 12 12 0 01-5 0 6 6 0 000 4 7 7 0 00-2 0l1 1 1 2-1-1-2-2-2 1h1l1 2 1 1-2-2-1-1-1 2H4l2 1v1l-1-1H4a19 19 0 00-4 6h15l1 1zM14 2zm-1 0zm2 0h-1 1zm0 0c1 0 1 0 0 0zm-3 0zm0 0zm4 0zm-4 0h-1 1zm4 0zm-5 0l1-1 1-1h1l-2 1-1 1zm5 0zm0 0l-1-1 1 1zm-1-1zm-1-1zm0 0z"/>
  <path d="M15 17h-1l-5-1a14 14 0 00-5 0H0l3-6 5-4a8 8 0 012-1l1-3 2-2h2l1 1 1 2v12l-1 2h-1zm1-1v-1-4-4a34 34 0 000-5l-2 1-3-1v1a7 7 0 000 3h-1a8 8 0 00-1 0l2 3-1-1-2-2-2 1h1v1l1 1 1 1a3 3 0 00-2-2L6 7v1a15 15 0 00-2 1 3 3 0 012 2l-2-1a19 19 0 00-4 6h8a204 204 0 016 0h2zM14 2zm-1 0zm2 0h-1 1zm-2 0h-1 1zm2 0zm-3 0zm3 0zm-3 0zm3 0zm0 0s1 0 0 0zm1 0zm0 0zm0 0zm0 0c0-1 0-1 0 0zm-5 0zm0 0V1v1zm1-1h-1 1zm4 0zm0 0zm-4 0zm0 0zm3 0zm-2 0zm0-1zm1 0zm-1 0zm1 0h-1 1z"/>
  <path d="M15 17h-1l-4-1a18 18 0 00-5 0H0c2-5 5-9 8-10l2-1 1-3 1-1 1-1h1a100 100 0 002 1l1 2v12l-1 2h-1zm1-1v-6-3a49 49 0 000-5l-2 1a8 8 0 01-3-1v4H9l2 2v1l-1-1-1-1-1-1-2 1h1v1l1 1 1 1H8c0-1 0-2-2-2V7v1H5L4 9l2 2-1-1H4l-1 1-2 5c-1 0-1 0 0 0h15zM14 2zm1 0zm1 0zm0 0V1v1z"/>
  <path d="M15 17h-1l-4-1a19 19 0 00-6 0 17 17 0 01-4 0l4-7c2-2 3-3 5-3l1-1V3l1-2 2-1h2l1 1 1 2v12l-1 2h-1zm1-1v-1-4-4a48 48 0 000-5 11 11 0 01-5 0v1a6 6 0 000 3h-1-1l2 2v1L9 7 8 6 6 7h1v1l1 1 1 1H8L7 8 6 7 5 8 4 9l1 1h1v1l-1-1H4a21 21 0 00-3 6h14v1l1-1zm0-14z"/>
  <path d="M15 17h-1l-4-1a21 21 0 00-6 0 16 16 0 01-4 0l3-6 3-3a9 9 0 014-2l1-3 2-2h2l2 2v14l-1 1h-1zm1-1v-5a41 41 0 010-6V2l-2 1-3-1v4h-1-1l1 1a4 4 0 011 2L9 7H7 6h1a4 4 0 012 2v1H8L7 8H6c0-1 0-1 0 0L4 9l1 1h1v1l-2-1-1 1a22 22 0 00-2 5h8a8297 8297 0 017 0z"/>
  <path d="M15 17h-1l-5-1a17 17 0 00-4 0H0v-1l4-6 2-2a9 9 0 014-2l1-3 2-2h2l1 1 1 2v12l-1 2h-1zm1-1v-5-4-4-1a11 11 0 01-5 0v4h-1-1l2 3-1-2-2-1-1 1 2 3H8L7 8H6L4 9a3 3 0 012 2l-1-1H4l-1 1a22 22 0 00-3 5h10a141 141 0 006 0z"/>
  <path d="M15 17l-6-1H3c-1 0-4 1-3-1 2-4 4-7 8-9 1 0 3-1 2-2 0-2 2-4 4-4s3 2 3 3v10c0 1 0 4-2 4zm1-1v-4-9l-4-1c-2 0-1 2-1 3s-3 1-1 2v1c0-1-2-2-3-1s2 1 2 2c0 2-1-1-2-1-2-1-4 2-1 2v1c-1-2-3-1-3 0l-2 5h15z"/>
</svg>
