<svg xmlns="http://www.w3.org/2000/svg" viewBox="0 0 17 17">
  <g stroke="#000">
    <path fill="#a40" stroke-width=".3" d="M6 290l-5 5 1 1 5-5-1-1zM10 287l6-5c-1-2-3 0-4 1l-3 3 1 1z" transform="matrix(1.02044 0 0 1.01385 0 -284)"/>
    <path fill="#ccc" stroke-width=".2" d="M10 290c2-2 0-5-3-4-2 1-2 4 0 5l3-1z" transform="matrix(1.02044 0 0 1.01385 0 -284)"/>
    <path fill="none" stroke-width=".3" d="M1 296s0 0 0 0m0-1c-2 1 1 3 1 1M16 282c2-1-1-2-2-1M8 287v1l2 2" transform="matrix(1.02044 0 0 1.01385 0 -284)"/>
  </g>
</svg>
